# xmcd
#
# Track frame offsets: 
#        150
#        20833
#        39090
#        56054
#        74038
#        88777
#        105401
#        121683
#        135374
#        160533
#        177242
#        200809
#        219174
#
# Disc length: 3141 seconds
#
# Revision: 0
# Processed by: cddbd v1.5.2PL0 Copyright (c) Steve Scherf et al.
# Submitted via: ExactAudioCopyFreeDBPlugin 1.0
#
DISCID=ad0c430d
DTITLE=The Mallett Brothers Band - Lights Along The River
DYEAR=2015
DGENRE=Country
TTITLE0=Late Night In Austin
TTITLE1=There Are No Rules In This Game
TTITLE2=Sunny Day
TTITLE3=Les Pauls
TTITLE4=Don't Mind The Morning
TTITLE5=Tennessee
TTITLE6=Rocking Chair
TTITLE7=Lights Along The River
TTITLE8=Sam Wood
TTITLE9=Coronado
TTITLE10=The Irene
TTITLE11=Look Me Up When You Can
TTITLE12=Tip Up
EXTD=
EXTT0=
EXTT1=
EXTT2=
EXTT3=
EXTT4=
EXTT5=
EXTT6=
EXTT7=
EXTT8=
EXTT9=
EXTT10=
EXTT11=
EXTT12=
PLAYORDER=
